<?xml version="1.0" encoding="utf-8"?>
<!-- Generator: Adobe Illustrator 26.2.1, SVG Export Plug-In . SVG Version: 6.00 Build 0)  -->
<svg version="1.1" id="HT" xmlns="http://www.w3.org/2000/svg" xmlns:xlink="http://www.w3.org/1999/xlink" x="0px" y="0px"
	 viewBox="0 0 325 100" style="enable-background:new 0 0 325 100;" xml:space="preserve">
<style type="text/css">
	.st0{fill:#60E2C9;}
	.st1{fill:#232595;}
</style>
<g>
	<g>
		<g>
			<g>
				<polygon class="st0" points="60.1,4.4 72.2,42 60.1,73.5 48,42 				"/>
			</g>
			<g>
				<polygon class="st0" points="35.3,75.4 16.8,75.4 44.9,45.6 				"/>
			</g>
			<g>
				<polygon class="st0" points="47.1,44.8 58.8,75.4 37.3,75.4 				"/>
			</g>
			<g>
				<polygon class="st0" points="35.3,77.2 39.5,92 17.8,77.2 				"/>
			</g>
			<g>
				<polygon class="st0" points="37.2,77.2 57.8,77.2 41.6,92.4 				"/>
			</g>
			<g>
				<polygon class="st0" points="60.1,80.5 76.9,96.3 67.8,96.3 52.3,96.3 43.3,96.3 				"/>
			</g>
			<g>
				<polygon class="st0" points="62.4,77.2 82.9,77.2 78.6,92.4 				"/>
			</g>
			<g>
				<polygon class="st0" points="84.8,77.2 102,77.2 80.7,91.7 				"/>
			</g>
			<g>
				<polygon class="st0" points="84.9,75.4 75.3,45.6 103.3,75.4 				"/>
			</g>
			<g>
				<polygon class="st0" points="82.9,75.4 61.4,75.4 73.1,44.8 				"/>
			</g>
			<g>
				<path class="st0" d="M11.2,75.3C11.2,75.3,11.1,75.3,11.2,75.3l-3.9,0.1L54.4,7L43.3,41.5L11.6,75.2
					C11.5,75.2,11.3,75.2,11.2,75.3"/>
			</g>
			<g>
				<polygon class="st0" points="108.7,75.4 76.8,41.5 65.8,7.1 112.8,75.4 				"/>
			</g>
		</g>
	</g>
	<g>
		<g>
			<g>
				<g>
					<path class="st1" d="M131.4,14.4c0-0.5,0.5-1.1,1.1-1.1h3.1c0.5,0,1.1,0.5,1.1,1.1v16.7c0.5-0.4,2.9-2.3,6.4-2.3
						c6,0,8.8,4.3,8.8,10.1v10.7c0,0.5-0.5,1.1-1.1,1.1h-2.9c-0.6,0-1.1-0.5-1.1-1.1V38.8c0-3.5-1.8-5.4-4.5-5.4
						c-3.3,0-5.5,2.4-5.8,3.4v12.8c0,0.6-0.4,1.1-1.1,1.1h-3.1c-0.5,0-1.1-0.5-1.1-1.1V14.4H131.4z"/>
				</g>
				<g>
					<path class="st1" d="M166,28.8c5.6,0,9.8,4.1,9.8,9.8c0,0.4-0.1,1.1-0.1,1.5c-0.1,0.5-0.5,0.9-0.9,0.9h-14.4
						c0.2,2.8,2.6,5.7,6.1,5.7c1.9,0,3.7-0.8,4.7-1.6c0.6-0.4,1.1-0.6,1.5-0.1l1.5,2c0.4,0.4,0.5,0.8-0.1,1.4
						c-1.6,1.4-4.3,2.6-7.9,2.6c-6.4,0-10.7-5.1-10.7-11.2C155.3,33.9,159.6,28.8,166,28.8z M170.8,37.6c-0.2-2.5-2.3-4.7-4.8-4.7
						c-2.8,0-5.1,2.1-5.5,4.7H170.8z"/>
				</g>
				<g>
					<path class="st1" d="M179.2,14.4c0-0.5,0.5-1.1,1.1-1.1h3.1c0.5,0,1.1,0.5,1.1,1.1v35.2c0,0.5-0.5,1.1-1.1,1.1h-3.1
						c-0.5,0-1.1-0.5-1.1-1.1V14.4z"/>
				</g>
				<g>
					<path class="st1" d="M189.6,14.4c0-0.5,0.5-1.1,1.1-1.1h3.1c0.5,0,1.1,0.5,1.1,1.1v35.2c0,0.5-0.5,1.1-1.1,1.1h-3.1
						c-0.5,0-1.1-0.5-1.1-1.1V14.4z"/>
				</g>
				<g>
					<path class="st1" d="M209.1,28.8c6,0,10.7,5.1,10.7,11.2c0,6.1-4.7,11.3-10.7,11.3c-6,0-10.7-5.1-10.7-11.3
						C198.4,33.8,203.2,28.8,209.1,28.8z M209.1,46.5c3.4,0,6-2.9,6-6.6c0-3.6-2.6-6.5-6-6.5c-3.4,0-6,2.9-6,6.5
						C203.1,43.5,205.9,46.5,209.1,46.5z"/>
				</g>
			</g>
			<g>
				<g>
					<path class="st1" d="M131.3,69.8h-2.2c-0.6,0-1.1-0.5-1.1-1.1v-2.4c0-0.6,0.4-1.1,1.1-1.1h2.2v-5.9c0-0.5,0.5-1.1,1.1-1.1
						l3.1-0.1c0.5,0,0.9,0.5,0.9,1.1v6h5.5c0.6,0,1.1,0.4,1.1,1.1v2.4c0,0.5-0.4,1.1-1.1,1.1h-5.5v10.5c0,1.8,0.7,2.1,1.7,2.1
						c1.2,0,2.6-0.6,3.3-0.9c0.7-0.3,1.1,0,1.3,0.5l0.9,2.3c0.3,0.6,0.1,1.1-0.5,1.3c-0.5,0.3-3.7,1.6-6.2,1.6
						c-4.2,0-5.5-2.5-5.5-6.3L131.3,69.8L131.3,69.8z"/>
				</g>
				<g>
					<path class="st1" d="M156,64.9c6,0,10.7,5.1,10.7,11.2c0,6.1-4.7,11.3-10.7,11.3c-6,0-10.7-5.1-10.7-11.3
						C145.2,70.1,150,64.9,156,64.9z M156,82.7c3.4,0,6-2.9,6-6.6c0-3.6-2.6-6.5-6-6.5c-3.4,0-6,2.9-6,6.5
						C150,79.7,152.6,82.7,156,82.7z"/>
				</g>
				<g>
					<path class="st1" d="M170.4,66.5c0-0.5,0.5-1.1,1.1-1.1h1.5c0.5,0,0.7,0.3,0.9,0.6l0.6,1.8c0.5-0.5,2.9-2.9,7.1-2.9
						c3.1,0,5.4,1.3,6.8,3.4c0.6-0.6,3.7-3.4,7.7-3.4c6.5,0,8.7,4.5,8.7,10.1v10.7c0,0.5-0.4,1.1-1.1,1.1h-2.9
						c-0.6,0-1.1-0.5-1.1-1.1V74.8c0-3.4-1.6-5.3-4.4-5.3c-3.3,0-5.1,2.3-5.5,2.6c0.1,0.5,0.2,1.5,0.2,2.5v11.1
						c0,0.5-0.5,1.1-1.1,1.1h-2.8c-0.6,0-1.1-0.5-1.1-1.1V74.8c0-3.4-1.6-5.3-4.5-5.3c-3.2,0-4.9,2.5-5.3,3.2v13
						c0,0.5-0.5,1.1-1.1,1.1h-2.9c-0.5,0-1.1-0.5-1.1-1.1V66.5L170.4,66.5L170.4,66.5z"/>
				</g>
				<g>
					<path class="st1" d="M218.9,64.9c6,0,10.7,5.1,10.7,11.2c0,6.1-4.7,11.3-10.7,11.3c-6,0-10.7-5.1-10.7-11.3
						C208.2,70.1,213,64.9,218.9,64.9z M218.9,82.7c3.4,0,6-2.9,6-6.6c0-3.6-2.6-6.5-6-6.5c-3.4,0-6,2.9-6,6.5
						C212.9,79.7,215.6,82.7,218.9,82.7z"/>
				</g>
				<g>
					<path class="st1" d="M233.4,66.5c0-0.5,0.5-1.1,1.1-1.1h1.6c0.4,0,0.8,0.3,0.9,0.7l0.6,1.8c0.4-0.5,2.3-3.1,6.2-3.1
						c2,0,4.4,0.5,3.9,2l-1.3,2.6c-0.3,0.6-0.8,0.7-1.3,0.5c-0.3-0.2-1.2-0.4-1.8-0.4c-3.1,0-4.5,2.2-4.7,2.6v13.5
						c0,0.9-0.6,1.1-1.5,1.1h-2.5c-0.5,0-1.1-0.5-1.1-1.1V66.5H233.4z"/>
				</g>
				<g>
					<path class="st1" d="M249.7,66.5c0-0.5,0.5-1.1,1.1-1.1h1.6c0.4,0,0.8,0.3,0.9,0.7l0.6,1.8c0.4-0.5,2.3-3.1,6.2-3.1
						c2,0,4.4,0.5,3.9,2l-1.3,2.6c-0.3,0.6-0.8,0.7-1.3,0.5c-0.3-0.2-1.2-0.4-1.8-0.4c-3.1,0-4.5,2.2-4.7,2.6v13.5
						c0,0.9-0.6,1.1-1.5,1.1h-2.5c-0.5,0-1.1-0.5-1.1-1.1V66.5H249.7z"/>
				</g>
				<g>
					<path class="st1" d="M274.9,64.9c6,0,10.7,5.1,10.7,11.2c0,6.1-4.7,11.3-10.7,11.3c-6,0-10.7-5.1-10.7-11.3
						C264.2,70.1,269,64.9,274.9,64.9z M274.9,82.7c3.4,0,6-2.9,6-6.6c0-3.6-2.6-6.5-6-6.5c-3.4,0-6,2.9-6,6.5
						C268.9,79.7,271.7,82.7,274.9,82.7z"/>
				</g>
				<g>
					<path class="st1" d="M287.5,66.7c-0.3-0.7,0-1.3,0.7-1.3h2.8c0.4,0,0.8,0.3,0.9,0.6l3.6,11.8h0.1l5.7-12.4
						c0.1-0.3,0.5-0.5,0.9-0.5h0.3c0.5,0,0.8,0.3,0.9,0.5l5.7,12.4h0.1l3.5-11.8c0.3-0.6,1.1-0.6,1.7-0.6h2.1c0.7,0,1.2,0.5,0.8,1.3
						l-6.2,20c-0.1,0.3-0.5,0.5-0.9,0.5h-0.2c-0.4,0-0.8-0.2-0.9-0.5l-6.5-14.2h-0.1L296,86.7c-0.1,0.3-0.4,0.5-0.8,0.5h-0.3
						c-0.4,0-0.8-0.2-0.9-0.5L287.5,66.7z"/>
				</g>
			</g>
		</g>
	</g>
</g>
</svg>
